<svg width="117" height="35" viewBox="0 0 117 35" fill="none" xmlns="http://www.w3.org/2000/svg">
<rect x="0.222168" width="116.444" height="35" rx="2" fill="#44D464"/>
<path d="M56.044 22H50.008V13.6H51.856V20.32H56.044V22ZM65.5132 17.8C65.5132 20.188 63.6292 22.144 61.0372 22.144C58.4452 22.144 56.5852 20.212 56.5852 17.824V17.8C56.5852 15.412 58.4692 13.456 61.0612 13.456C63.6532 13.456 65.5132 15.388 65.5132 17.776V17.8ZM63.5812 17.824V17.8C63.5812 16.36 62.5252 15.16 61.0372 15.16C59.5492 15.16 58.5172 16.336 58.5172 17.776V17.8C58.5172 19.24 59.5732 20.44 61.0612 20.44C62.5492 20.44 63.5812 19.264 63.5812 17.824ZM74.7845 20.812C73.9205 21.544 72.7325 22.144 71.1965 22.144C68.5805 22.144 66.7805 20.308 66.7805 17.824V17.8C66.7805 15.412 68.6405 13.456 71.1845 13.456C72.6965 13.456 73.6085 13.864 74.4845 14.608L73.3205 16.012C72.6725 15.472 72.0965 15.16 71.1245 15.16C69.7805 15.16 68.7125 16.348 68.7125 17.776V17.8C68.7125 19.336 69.7685 20.464 71.2565 20.464C71.9285 20.464 72.5285 20.296 72.9965 19.96V18.76H71.1365V17.164H74.7845V20.812ZM82.0923 22H80.2443V13.6H82.0923V22ZM91.6556 22H90.0836L86.0156 16.66V22H84.1916V13.6H85.8956L89.8316 18.772V13.6H91.6556V22Z" fill="#121212"/>
<path d="M31.3984 11.4634C31.3984 11.3001 31.4561 11.1435 31.5588 11.028C31.6614 10.9125 31.8007 10.8476 31.9459 10.8476H33.0407V9.61587C33.0407 9.45253 33.0984 9.29588 33.2011 9.18039C33.3037 9.06489 33.443 9.00001 33.5882 9.00001C33.7334 9.00001 33.8726 9.06489 33.9753 9.18039C34.0779 9.29588 34.1356 9.45253 34.1356 9.61587V10.8476H35.2304C35.3756 10.8476 35.5149 10.9125 35.6175 11.028C35.7202 11.1435 35.7779 11.3001 35.7779 11.4634C35.7779 11.6268 35.7202 11.7834 35.6175 11.8989C35.5149 12.0144 35.3756 12.0793 35.2304 12.0793H34.1356V13.311C34.1356 13.4743 34.0779 13.631 33.9753 13.7465C33.8726 13.862 33.7334 13.9269 33.5882 13.9269C33.443 13.9269 33.3037 13.862 33.2011 13.7465C33.0984 13.631 33.0407 13.4743 33.0407 13.311V12.0793H31.9459C31.8007 12.0793 31.6614 12.0144 31.5588 11.8989C31.4561 11.7834 31.3984 11.6268 31.3984 11.4634ZM35.6793 15.6728C35.9294 17.3453 35.7006 19.0639 35.0259 20.5806C34.3511 22.0972 33.2654 23.3334 31.9255 24.1105C30.5856 24.8877 29.0607 25.1658 27.5712 24.9045C26.0816 24.6432 24.7045 23.8561 23.6385 22.6568C22.5725 21.4576 21.8728 19.9083 21.6406 18.2325C21.4083 16.5568 21.6554 14.8414 22.3463 13.334C23.0371 11.8265 24.1359 10.6051 25.484 9.84602C26.8322 9.08695 28.3598 8.8295 29.8465 9.11086C29.9886 9.13913 30.115 9.22939 30.1983 9.36199C30.2815 9.49459 30.3149 9.65881 30.2911 9.81893C30.2673 9.97905 30.1882 10.1221 30.0711 10.217C29.954 10.3119 29.8084 10.3509 29.6658 10.3256C28.8024 10.1622 27.9176 10.2125 27.0731 10.4728C26.2287 10.7332 25.4448 11.1975 24.776 11.8333C24.1072 12.4692 23.5697 13.2614 23.2007 14.1547C22.8318 15.048 22.6403 16.0211 22.6396 17.0062C22.6383 18.6645 23.1801 20.2653 24.1614 21.5027C24.772 20.5074 25.6305 19.7373 26.629 19.2895C26.0926 18.8142 25.7012 18.1627 25.5093 17.4256C25.3173 16.6885 25.3342 15.9025 25.5578 15.1767C25.7813 14.451 26.2003 13.8216 26.7566 13.3762C27.3128 12.9308 27.9786 12.6914 28.6613 12.6914C29.344 12.6914 30.0098 12.9308 30.566 13.3762C31.1223 13.8216 31.5413 14.451 31.7648 15.1767C31.9884 15.9025 32.0053 16.6885 31.8133 17.4256C31.6214 18.1627 31.23 18.8142 30.6936 19.2895C31.6921 19.7373 32.5506 20.5074 33.1612 21.5027C34.1425 20.2653 34.6843 18.6645 34.683 17.0062C34.683 16.6275 34.6551 16.2495 34.5995 15.8761C34.5869 15.7959 34.5886 15.7138 34.6044 15.6344C34.6201 15.555 34.6498 15.4799 34.6915 15.4135C34.7332 15.347 34.7862 15.2905 34.8475 15.2473C34.9087 15.204 34.9769 15.1748 35.0483 15.1614C35.1196 15.148 35.1926 15.1506 35.263 15.1691C35.3334 15.1876 35.3999 15.2216 35.4586 15.2691C35.5173 15.3167 35.567 15.3768 35.6049 15.4461C35.6428 15.5154 35.6681 15.5925 35.6793 15.6728ZM28.6613 18.8537C29.0944 18.8537 29.5177 18.7093 29.8778 18.4386C30.2379 18.1679 30.5186 17.7831 30.6843 17.333C30.8501 16.8829 30.8934 16.3876 30.8089 15.9097C30.7245 15.4319 30.5159 14.9929 30.2097 14.6484C29.9034 14.3039 29.5133 14.0693 29.0885 13.9742C28.6637 13.8792 28.2235 13.9279 27.8233 14.1144C27.4232 14.3008 27.0812 14.6166 26.8406 15.0217C26.6 15.4268 26.4716 15.9031 26.4716 16.3903C26.4716 17.0436 26.7023 17.6702 27.1129 18.1322C27.5236 18.5942 28.0806 18.8537 28.6613 18.8537ZM28.6613 23.7806C29.998 23.7821 31.2967 23.2808 32.351 22.3564C31.955 21.6596 31.4094 21.0862 30.7646 20.689C30.1198 20.2918 29.3964 20.0836 28.6613 20.0836C27.9262 20.0836 27.2028 20.2918 26.558 20.689C25.9132 21.0862 25.3676 21.6596 24.9716 22.3564C26.0259 23.2808 27.3246 23.7821 28.6613 23.7806Z" fill="#121212"/>
</svg>
