<svg width="94" height="19" viewBox="0 0 94 19" fill="none" xmlns="http://www.w3.org/2000/svg">
<path d="M12.9733 5.7C12.9733 6.48667 12.8266 7.18 12.5333 7.78C12.2399 8.38 11.8399 8.88 11.3333 9.28C10.8266 9.68 10.2333 9.98667 9.55325 10.2C8.87325 10.4 8.14659 10.5 7.37325 10.5H4.59325V15H2.13325V0.999999H7.65325C8.46659 0.999999 9.19992 1.11333 9.85325 1.34C10.5199 1.55333 11.0799 1.86667 11.5333 2.28C11.9999 2.69333 12.3533 3.18667 12.5933 3.76C12.8466 4.33333 12.9733 4.98 12.9733 5.7ZM10.4733 5.76C10.4733 4.92 10.1999 4.29333 9.65325 3.88C9.10659 3.45333 8.37325 3.24 7.45325 3.24H4.59325V8.28H7.45325C8.38659 8.28 9.11992 8.05333 9.65325 7.6C10.1999 7.13333 10.4733 6.52 10.4733 5.76ZM17.0326 0.999999H19.4926V15H17.0326V0.999999ZM35.4803 5.7C35.4803 6.48667 35.3336 7.18 35.0403 7.78C34.7469 8.38 34.3469 8.88 33.8403 9.28C33.3336 9.68 32.7403 9.98667 32.0603 10.2C31.3803 10.4 30.6536 10.5 29.8803 10.5H27.1003V15H24.6403V0.999999H30.1603C30.9736 0.999999 31.7069 1.11333 32.3603 1.34C33.0269 1.55333 33.5869 1.86667 34.0403 2.28C34.5069 2.69333 34.8603 3.18667 35.1003 3.76C35.3536 4.33333 35.4803 4.98 35.4803 5.7ZM32.9803 5.76C32.9803 4.92 32.7069 4.29333 32.1603 3.88C31.6136 3.45333 30.8803 3.24 29.9603 3.24H27.1003V8.28H29.9603C30.8936 8.28 31.6269 8.05333 32.1603 7.6C32.7069 7.13333 32.9803 6.52 32.9803 5.76ZM39.3997 15V0.999999H41.8597V12.76H49.2197V15H39.3997ZM64.5518 0.999999V8.94C64.5518 9.98 64.4052 10.8933 64.1118 11.68C63.8318 12.4667 63.4318 13.1267 62.9118 13.66C62.3918 14.18 61.7585 14.5733 61.0118 14.84C60.2785 15.0933 59.4518 15.22 58.5318 15.22C57.6252 15.22 56.8052 15.0933 56.0718 14.84C55.3385 14.5733 54.7118 14.18 54.1918 13.66C53.6718 13.14 53.2718 12.5 52.9918 11.74C52.7118 10.9667 52.5718 10.0733 52.5718 9.06V0.999999H55.0318V8.96C55.0318 10.2667 55.3452 11.26 55.9718 11.94C56.5985 12.62 57.4652 12.96 58.5718 12.96C59.6652 12.96 60.5252 12.6333 61.1518 11.98C61.7785 11.3267 62.0918 10.3533 62.0918 9.06V0.999999H64.5518ZM80.1686 5.7C80.1686 6.48667 80.0219 7.18 79.7286 7.78C79.4352 8.38 79.0352 8.88 78.5286 9.28C78.0219 9.68 77.4286 9.98667 76.7486 10.2C76.0686 10.4 75.3419 10.5 74.5686 10.5H71.7886V15H69.3286V0.999999H74.8486C75.6619 0.999999 76.3952 1.11333 77.0486 1.34C77.7152 1.55333 78.2752 1.86667 78.7286 2.28C79.1952 2.69333 79.5486 3.18667 79.7886 3.76C80.0419 4.33333 80.1686 4.98 80.1686 5.7ZM77.6686 5.76C77.6686 4.92 77.3952 4.29333 76.8486 3.88C76.3019 3.45333 75.5686 3.24 74.6486 3.24H71.7886V8.28H74.6486C75.5819 8.28 76.3152 8.05333 76.8486 7.6C77.3952 7.13333 77.6686 6.52 77.6686 5.76Z" fill="#E9E9E9"/>
<ellipse cx="90.4444" cy="8.5" rx="3.11111" ry="3.5" fill="#44D464"/>
</svg>
